<svg width="57" height="54" viewBox="0 0 57 54" fill="none" xmlns="http://www.w3.org/2000/svg">
<circle cx="30" cy="27" r="26" fill="#EC1119"/>
<path d="M40 27C40.0052 29.0946 39.1838 31.1066 37.714 32.599C37.5274 32.784 37.2755 32.8881 37.0128 32.8888C36.75 32.8895 36.4975 32.7868 36.3099 32.6029C36.1223 32.4189 36.0146 32.1686 36.0101 31.9058C36.0057 31.6431 36.1048 31.3892 36.286 31.199C37.3847 30.0777 38.0001 28.5704 38.0001 27.0005C38.0001 25.4306 37.3847 23.9233 36.286 22.802C36.1048 22.6118 36.0057 22.3579 36.0101 22.0952C36.0146 21.8325 36.1223 21.5821 36.3099 21.3981C36.4975 21.2142 36.75 21.1115 37.0128 21.1122C37.2755 21.1129 37.5274 21.217 37.714 21.402C39.1835 22.8941 40.005 24.9058 40 27ZM39.684 17.27C39.4904 17.0886 39.2327 16.9915 38.9675 17.0002C38.7023 17.0088 38.4514 17.1224 38.27 17.316C38.0886 17.5096 37.9915 17.7674 38.0002 18.0325C38.0088 18.2977 38.1224 18.5486 38.316 18.73C39.4754 19.7733 40.4026 21.0488 41.0372 22.4736C41.6718 23.8984 41.9998 25.4407 41.9998 27.0005C41.9998 28.5603 41.6718 30.1026 41.0372 31.5274C40.4026 32.9522 39.4754 34.2277 38.316 35.271C38.1225 35.4524 38.009 35.7032 38.0005 35.9683C37.992 36.2334 38.0891 36.491 38.2705 36.6845C38.4519 36.878 38.7027 36.9915 38.9678 37C39.2329 37.0085 39.4905 36.9114 39.684 36.73C41.0431 35.4997 42.1294 33.9982 42.8728 32.3225C43.6162 30.6467 44.0003 28.8338 44.0003 27.0005C44.0003 25.1672 43.6162 23.3543 42.8728 21.6785C42.1294 20.0028 41.0431 18.5003 39.684 17.27ZM34 16.92V37.08C33.9955 37.444 33.8923 37.7999 33.7015 38.11C33.5107 38.42 33.2395 38.6725 32.9166 38.8405C32.5937 39.0086 32.2312 39.086 31.8679 39.0644C31.5045 39.0428 31.1537 38.9231 30.853 38.718L22.686 33H19C18.2044 33 17.4413 32.6839 16.8787 32.1213C16.3161 31.5587 16 30.7957 16 30V24C16 23.2044 16.3161 22.4413 16.8787 21.8787C17.4413 21.3161 18.2044 21 19 21H22.685L30.853 15.282C31.1538 15.0769 31.5046 14.9572 31.8681 14.9356C32.2316 14.9141 32.5941 14.9915 32.917 15.1597C33.2399 15.3279 33.5112 15.5805 33.7019 15.8907C33.8926 16.2009 33.9956 16.5559 34 16.92ZM22 23H19C18.7348 23 18.4804 23.1054 18.2929 23.2929C18.1054 23.4804 18 23.7348 18 24V30C18 30.2652 18.1054 30.5196 18.2929 30.7071C18.4804 30.8946 18.7348 31 19 31H22V23ZM32.006 37.082L32 16.921L24 22.521V31.48L32 37.08L32.006 37.082Z" fill="white"/>
<path d="M55.5 2L1.5 52.5" stroke="white" stroke-width="3"/>
</svg>
