<svg width="52" height="52" viewBox="0 0 52 52" fill="none" xmlns="http://www.w3.org/2000/svg">
<circle cx="26" cy="26" r="26" fill="#EC1119"/>
<path d="M36 26C36.0052 28.0946 35.1838 30.1066 33.714 31.599C33.5274 31.784 33.2755 31.8881 33.0128 31.8888C32.75 31.8895 32.4975 31.7868 32.3099 31.6029C32.1223 31.4189 32.0146 31.1686 32.0101 30.9058C32.0057 30.6431 32.1048 30.3892 32.286 30.199C33.3847 29.0777 34.0001 27.5704 34.0001 26.0005C34.0001 24.4306 33.3847 22.9233 32.286 21.802C32.1048 21.6118 32.0057 21.3579 32.0101 21.0952C32.0146 20.8325 32.1223 20.5821 32.3099 20.3981C32.4975 20.2142 32.75 20.1115 33.0128 20.1122C33.2755 20.1129 33.5274 20.217 33.714 20.402C35.1835 21.8941 36.005 23.9058 36 26ZM35.684 16.27C35.4904 16.0886 35.2327 15.9915 34.9675 16.0002C34.7023 16.0088 34.4514 16.1224 34.27 16.316C34.0886 16.5096 33.9915 16.7674 34.0002 17.0325C34.0088 17.2977 34.1224 17.5486 34.316 17.73C35.4754 18.7733 36.4026 20.0488 37.0372 21.4736C37.6718 22.8984 37.9998 24.4407 37.9998 26.0005C37.9998 27.5603 37.6718 29.1026 37.0372 30.5274C36.4026 31.9522 35.4754 33.2277 34.316 34.271C34.1225 34.4524 34.009 34.7032 34.0005 34.9683C33.992 35.2334 34.0891 35.491 34.2705 35.6845C34.4519 35.878 34.7027 35.9915 34.9678 36C35.2329 36.0085 35.4905 35.9114 35.684 35.73C37.0431 34.4997 38.1294 32.9982 38.8728 31.3225C39.6162 29.6467 40.0003 27.8338 40.0003 26.0005C40.0003 24.1672 39.6162 22.3543 38.8728 20.6785C38.1294 19.0028 37.0431 17.5003 35.684 16.27ZM30 15.92V36.08C29.9955 36.444 29.8923 36.7999 29.7015 37.11C29.5107 37.42 29.2395 37.6725 28.9166 37.8405C28.5937 38.0086 28.2312 38.086 27.8679 38.0644C27.5045 38.0428 27.1537 37.9231 26.853 37.718L18.686 32H15C14.2044 32 13.4413 31.6839 12.8787 31.1213C12.3161 30.5587 12 29.7957 12 29V23C12 22.2044 12.3161 21.4413 12.8787 20.8787C13.4413 20.3161 14.2044 20 15 20H18.685L26.853 14.282C27.1538 14.0769 27.5046 13.9572 27.8681 13.9356C28.2316 13.9141 28.5941 13.9915 28.917 14.1597C29.2399 14.3279 29.5112 14.5805 29.7019 14.8907C29.8926 15.2009 29.9956 15.5559 30 15.92ZM18 22H15C14.7348 22 14.4804 22.1054 14.2929 22.2929C14.1054 22.4804 14 22.7348 14 23V29C14 29.2652 14.1054 29.5196 14.2929 29.7071C14.4804 29.8946 14.7348 30 15 30H18V22ZM28.006 36.082L28 15.921L20 21.521V30.48L28 36.08L28.006 36.082Z" fill="white"/>
</svg>
